SplineFontDB: 3.2
FontName: Untitled1
FullName: Untitled1
FamilyName: Untitled1
Weight: Regular
Copyright: Copyright (c) 2023, alifeee
UComments: "2023-12-3: Created with FontForge (http://fontforge.org)"
Version: 001.000
ItalicAngle: 0
UnderlinePosition: -94
UnderlineWidth: 46
Ascent: 819
Descent: 400
InvalidEm: 0
LayerCount: 2
Layer: 0 0 "Back" 1
Layer: 1 0 "Fore" 0
XUID: [1021 879 838727349 2897]
StyleMap: 0x0000
FSType: 0
OS2Version: 0
OS2_WeightWidthSlopeOnly: 0
OS2_UseTypoMetrics: 1
CreationTime: 1701627778
ModificationTime: 1701993244
OS2TypoAscent: 0
OS2TypoAOffset: 1
OS2TypoDescent: 0
OS2TypoDOffset: 1
OS2TypoLinegap: 93
OS2WinAscent: 0
OS2WinAOffset: 1
OS2WinDescent: 0
OS2WinDOffset: 1
HheadAscent: 0
HheadAOffset: 1
HheadDescent: 0
HheadDOffset: 1
OS2Vendor: 'PfEd'
MarkAttachClasses: 1
DEI: 91125
Encoding: ISO8859-1
UnicodeInterp: none
NameList: AGL For New Fonts
DisplaySize: -48
AntiAlias: 1
FitToEm: 0
WinInfo: 44 22 7
BeginPrivate: 0
EndPrivate
Grid
-3 511 m 25
 894 511 l 1049
EndSplineSet
BeginChars: 256 53

StartChar: A
Encoding: 65 65 0
Width: 708
VWidth: 1028
Flags: HW
LayerCount: 2
Fore
SplineSet
298 388 m 1049
298 391 m 25
 447 400 l 25
 374 610 l 25
 298 391 l 25
261 813 m 1
 500 804 l 1
 709 7 l 1
 513 7 l 1
 440 220 l 1
 264 217 l 1
 209 7 l 1
 1 7 l 1
 261 813 l 1
EndSplineSet
EndChar

StartChar: B
Encoding: 66 66 1
Width: 566
VWidth: 1028
Flags: HW
LayerCount: 2
Fore
SplineSet
180 163 m 17
 279 167 351 177 347 257 c 0
 343 332 294 350 180 341 c 9
 180 163 l 17
177 536 m 17
 254 536 298 546 298 619 c 0
 297 724 232 708 178 708 c 9
 177 536 l 17
27 813 m 1
 284 816 l 2
 358 817 445 733 446 643 c 0
 447 547 409 520 382 483 c 1
 499 429 552 431 551 283 c 0
 550 126 383 17 206 13 c 2
 46 10 l 25
 27 813 l 1
EndSplineSet
EndChar

StartChar: C
Encoding: 67 67 2
Width: 613
VWidth: 1028
Flags: HW
LayerCount: 2
Back
Fore
SplineSet
469 312 m 17
 423 258 402 196 319 196 c 0
 246 196 183 296 182 415 c 0
 181 506 246 659 361 658 c 0
 420 657 450 640 477 610 c 9
 566 699 l 17
 457 782 401 826 316 827 c 0
 262 828 152 803 101 724 c 0
 38 626 14 439 14 338 c 0
 14 221 109 -1 293 -1 c 0
 405 -1 530 135 608 228 c 1
 469 312 l 17
EndSplineSet
EndChar

StartChar: D
Encoding: 68 68 3
Width: 497
VWidth: 1028
Flags: HW
LayerCount: 2
Back
Fore
SplineSet
169 614 m 25
 261 614 l 18
 299 614 336 535 337 473 c 0
 341 342 250 225 215 225 c 10
 183 225 l 1
 169 614 l 25
17 6 m 25
 206 7 l 2
 431 8 482 195 482 352 c 10
 482 498 l 18
 482 728 378 821 235 821 c 10
 17 821 l 1
 17 6 l 25
EndSplineSet
EndChar

StartChar: E
Encoding: 69 69 4
Width: 572
VWidth: 1028
Flags: HW
LayerCount: 2
Back
Fore
SplineSet
1245 975 m 1053
242 294 m 9
 242 244 l 1
 317 232 392 235 456 244 c 1
 435 28 l 26
 434 8 414 -6 393 -5 c 0
 360 -4 347 12 314 12 c 2
 9 10 l 25
 49 826 l 17
 224 809 396 806 563 826 c 1
 538 754 534 685 525 616 c 9
 256 593 l 17
 255 546 255 498 243 456 c 1
 395 456 l 17
 370 402 369 301 369 301 c 2
 368 296 364 278 352 278 c 0
 338 278 338 297 326 296 c 2
 322 300 264 300 242 294 c 9
EndSplineSet
EndChar

StartChar: F
Encoding: 70 70 5
Width: 585
VWidth: 1028
Flags: HW
LayerCount: 2
Back
Fore
SplineSet
30 820 m 29
 568 824 l 29
 571 614 l 22
 572 582 503 579 456 580 c 4
 387 581 347 588 277 593 c 29
 261 490 l 29
 304 491 365 515 372 495 c 4
 386 453 373 390 362 352 c 4
 353 327 323 315 285 315 c 4
 268 315 257 316 240 317 c 29
 235 37 l 30
 235 5 191 5 159 1 c 28
 127 -3 112 14 79 18 c 28
 54 19 42 16 17 15 c 29
 30 820 l 29
EndSplineSet
EndChar

StartChar: G
Encoding: 71 71 6
Width: 644
VWidth: 1028
Flags: HW
LayerCount: 2
Back
Fore
SplineSet
500 603 m 13
 615 727 l 5
 521 783 433 831 306 827 c 4
 43 822 10 484 9 422 c 4
 5 201 103 10 304 11 c 4
 528 12 625 156 614 333 c 30
 613 447 l 5
 321 451 l 5
 295 280 l 29
 429 278 l 5
 422 241 368 188 320 189 c 4
 236 193 184 310 188 409 c 4
 189 502 248 644 395 640 c 4
 472 639 475 636 500 603 c 13
EndSplineSet
EndChar

StartChar: H
Encoding: 72 72 7
Width: 587
VWidth: 1028
Flags: HW
LayerCount: 2
Back
Fore
SplineSet
252 473 m 9
 403 472 l 17
 394 586 379 697 411 819 c 1
 462 810 509 815 555 819 c 1
 581 547 554 269 568 6 c 1
 400 6 l 1
 398 285 l 1
 237 289 l 25
 242 5 l 1
 31 6 l 25
 9 805 l 1
 89 835 162 828 246 824 c 1
 239 703 222 574 252 473 c 9
EndSplineSet
EndChar

StartChar: I
Encoding: 73 73 8
Width: 487
VWidth: 1028
Flags: HW
HStem: 10 190<322 462> 667 180<31 169> 673 147<340 472>
VStem: 169 174<564 664>
LayerCount: 2
Back
Fore
SplineSet
169 664 m 25xd0
 135 186 l 25
 51 210 l 18
 31 215 10 204 10 189 c 10
 9 43 l 17
 165 11 311 6 462 10 c 9
 468 181 l 18
 468 185 465 193 453 194 c 10
 315 201 l 17
 321 360 315 519 343 673 c 9
 390 674 454 661 466 677 c 0
 483 699 488 814 463 821 c 0xb0
 457 822 431 826 411 827 c 26
 51 847 l 18
 39 848 31 825 30 814 c 10
 12 679 l 18
 11 667 20 667 30 667 c 10
 169 664 l 25xd0
EndSplineSet
EndChar

StartChar: J
Encoding: 74 74 9
Width: 629
VWidth: 1028
Flags: HW
LayerCount: 2
Back
Fore
SplineSet
209 284 m 1
 152 275 90 274 38 254 c 1
 53 87 147 9 284 5 c 0
 369 1 465 99 461 153 c 2
 461 153 464 510 436 674 c 1
 504 673 562 681 613 693 c 9
 616 837 l 17
 399 816 42 816 42 816 c 2
 31 816 9 782 10 767 c 2
 16 673 l 1
 99 688 181 679 264 672 c 1
 278 299 l 18
 279 243 312 158 269 159 c 0
 215 160 224 230 209 284 c 1
EndSplineSet
EndChar

StartChar: K
Encoding: 75 75 10
Width: 707
VWidth: 1028
Flags: HW
LayerCount: 2
Back
Fore
SplineSet
21 811 m 25
 238 816 l 25
 248 622 l 25
 387 821 l 25
 557 821 l 25
 340 427 l 1
 433 344 694 56 694 55 c 2
 694 23 l 1
 482 17 l 1
 439 113 352 208 240 275 c 9
 258 10 l 17
 183 19 109 21 37 10 c 9
 21 811 l 25
EndSplineSet
EndChar

StartChar: L
Encoding: 76 76 11
Width: 618
VWidth: 1028
Flags: HW
LayerCount: 2
Back
Fore
SplineSet
17 811 m 9
 190 808 l 17
 189 614 161 421 199 225 c 1
 329 221 454 222 579 227 c 1
 601 147 606 72 597 2 c 1
 415 19 216 36 28 10 c 1
 37 274 13 544 17 811 c 9
EndSplineSet
EndChar

StartChar: M
Encoding: 77 77 12
Width: 1217
VWidth: 1028
Flags: HW
LayerCount: 2
Back
Fore
SplineSet
256 18 m 1
 341 191 373 381 466 564 c 1
 530 490 559 401 600 312 c 9
 771 320 l 17
 771 415 820 480 873 543 c 1
 898 363 921 182 962 5 c 9
 1204 13 l 17
 1157 276 1090 541 1023 805 c 9
 767 819 l 17
 737 746 699 681 661 614 c 1
 615 665 607 744 582 811 c 1
 491 823 404 828 316 829 c 1
 189 541 154 276 16 18 c 1
 88 -12 163 19 256 18 c 1
EndSplineSet
EndChar

StartChar: N
Encoding: 78 78 13
Width: 663
VWidth: 1028
Flags: HW
LayerCount: 2
Back
Fore
SplineSet
219 388 m 1
 272 272 320 112 411 -8 c 9
 624 7 l 17
 645 268 611 495 647 793 c 1
 585 798 519 817 461 805 c 1
 428 633 433 445 408 268 c 1
 356 432 297 633 259 813 c 1
 179 817 101 815 16 829 c 1
 52 589 10 447 17 17 c 1
 89 -8 136 21 204 0 c 1
 199 132 199 256 219 388 c 1
EndSplineSet
EndChar

StartChar: O
Encoding: 79 79 14
Width: 640
VWidth: 1028
Flags: HW
VStem: 17 230<257 532> 399 221<296 519>
LayerCount: 2
Back
Fore
SplineSet
248 391 m 24
 249 317 247 221 327 220 c 0
 389 219 400 326 399 401 c 24
 398 474 382 565 320 569 c 0
 262 573 247 466 248 391 c 24
17 414 m 0
 16 565 94 815 311 819 c 0
 522 823 619 615 620 417 c 0
 621 319 529 6 309 10 c 0
 45 14 18 288 17 414 c 0
EndSplineSet
EndChar

StartChar: P
Encoding: 80 80 15
Width: 524
VWidth: 1028
Flags: HW
LayerCount: 2
Back
Fore
SplineSet
211 541 m 17
 299 532 335 558 331 616 c 0
 327 672 289 720 209 690 c 9
 211 541 l 17
43 17 m 25
 25 777 l 2
 24 813 161 824 246 824 c 0
 435 824 501 783 505 643 c 0
 509 516 339 394 217 399 c 9
 206 7 l 1
 43 17 l 25
EndSplineSet
EndChar

StartChar: Q
Encoding: 81 81 16
Width: 789
VWidth: 1028
Flags: HW
LayerCount: 2
Back
Fore
SplineSet
437 369 m 1
 457 404 457 428 456 469 c 0
 455 548 419 679 309 684 c 0
 229 688 209 525 209 463 c 0
 209 359 252 226 295 225 c 0
 336 224 350 233 362 249 c 1
 329 295 299 318 267 351 c 1
 302 378 294 417 330 442 c 1
 377 430 404 395 437 369 c 1
726 148 m 1049
634 -3 m 1
 603 43 565 84 513 125 c 1
 487 76 362 5 303 5 c 0
 124 4 17 210 12 414 c 0
 6 644 134 821 311 821 c 0
 595 821 657 698 663 446 c 0
 664 356 659 292 608 230 c 1
 676 205 724 155 778 107 c 1
 719 79 680 35 634 -3 c 1
EndSplineSet
EndChar

StartChar: R
Encoding: 82 82 17
Width: 566
VWidth: 1028
Flags: HW
LayerCount: 2
Back
Fore
SplineSet
179 532 m 1
 232 537 l 18
 254 538 330 581 330 622 c 0
 330 663 289 700 261 700 c 10
 180 700 l 25
 179 532 l 1
17 15 m 9
 26 816 l 25
 363 816 l 2
 406 816 535 785 535 600 c 0
 535 469 411 365 285 372 c 1
 364 245 431 247 558 21 c 1
 486 -9 404 22 327 26 c 1
 281 88 241 165 198 216 c 1
 207 122 199 80 200 21 c 1
 144 9 87 -7 17 15 c 9
EndSplineSet
EndChar

StartChar: S
Encoding: 83 83 18
Width: 577
VWidth: 1028
Flags: HW
LayerCount: 2
Back
Fore
SplineSet
10 104 m 1
 122 215 l 17
 180 185 199 161 267 160 c 0
 329 159 388 198 379 270 c 0
 369 366 323 339 240 338 c 0
 151 337 79 427 78 537 c 0
 77 696 188 823 335 819 c 0
 384 818 419 814 452 777 c 26
 529 690 l 25
 419 598 l 25
 388 632 l 26
 366 659 350 666 304 666 c 0
 236 666 208 627 209 574 c 0
 210 516 225 478 288 477 c 0
 346 476 349 489 390 490 c 0
 475 491 569 389 568 283 c 0
 567 132 454 9 274 5 c 0
 194 4 171 15 146 27 c 10
 10 104 l 1
EndSplineSet
EndChar

StartChar: T
Encoding: 84 84 19
Width: 692
VWidth: 1028
Flags: HW
LayerCount: 2
Back
Fore
SplineSet
251 10 m 17
 218 221 252 419 258 622 c 9
 17 616 l 25
 10 783 l 17
 83 815 593 817 673 811 c 1
 656 749 678 685 682 621 c 1
 594 625 517 620 445 609 c 9
 446 18 l 25
 251 10 l 17
EndSplineSet
EndChar

StartChar: U
Encoding: 85 85 20
Width: 618
VWidth: 1028
Flags: HW
LayerCount: 2
Back
Fore
SplineSet
10 814 m 25
 15 441 l 18
 16 314 125 16 277 12 c 10
 387 10 l 18
 501 9 597 295 598 391 c 10
 603 813 l 25
 429 809 l 1
 433 516 377 240 341 241 c 0
 245 242 196 439 200 643 c 1
 175 700 173 757 172 811 c 1
 10 814 l 25
EndSplineSet
EndChar

StartChar: V
Encoding: 86 86 21
Width: 808
VWidth: 1028
Flags: HW
LayerCount: 2
Back
Fore
SplineSet
1 790 m 5
 95 486 218 260 332 12 c 9
 514 7 l 17
 636 279 620 370 789 820 c 1
 727 803 646 807 571 803 c 1
 556 623 488 460 429 296 c 1
 356 460 260 615 206 789 c 5
 144 793 92 800 1 790 c 5
EndSplineSet
EndChar

StartChar: W
Encoding: 87 87 22
Width: 1270
VWidth: 1028
Flags: HW
LayerCount: 2
Back
Fore
SplineSet
12 785 m 1
 100 507 231 269 340 10 c 9
 537 23 l 17
 554 108 589 187 630 262 c 1
 658 174 683 77 721 13 c 9
 902 15 l 17
 1045 272 1153 532 1254 793 c 9
 997 811 l 17
 925 652 872 473 782 330 c 1
 707 423 673 506 637 599 c 1
 567 516 512 431 458 346 c 1
 391 499 307 647 222 798 c 1
 150 794 75 815 12 785 c 1
EndSplineSet
EndChar

StartChar: X
Encoding: 88 88 23
Width: 861
VWidth: 1028
Flags: HW
LayerCount: 2
Back
Fore
SplineSet
15 31 m 1
 222 421 l 17
 179 546 81 655 27 790 c 1
 78 806 152 799 240 782 c 1
 291 681 365 612 437 538 c 1
 491 636 551 734 630 819 c 1
 702 797 768 807 840 798 c 1
 782 676 701 554 613 438 c 1
 648 291 710 150 773 15 c 1
 706 19 641 11 574 26 c 1
 525 110 487 200 420 267 c 1
 368 163 280 101 226 2 c 1
 143 23 48 6 15 31 c 1
EndSplineSet
EndChar

StartChar: Y
Encoding: 89 89 24
Width: 765
VWidth: 1028
Flags: HW
LayerCount: 2
Back
Fore
SplineSet
10 810 m 1
 100 654 194 500 324 354 c 1
 341 239 342 131 346 17 c 1
 413 16 493 -8 541 17 c 1
 524 128 501 240 521 346 c 1
 551 463 693 682 757 788 c 1
 666 793 573 778 482 800 c 1
 457 701 426 604 388 511 c 1
 331 607 259 705 224 799 c 1
 150 800 78 822 10 810 c 1
EndSplineSet
EndChar

StartChar: Z
Encoding: 90 90 25
Width: 645
VWidth: 1028
Flags: HW
LayerCount: 2
Back
Fore
SplineSet
38 10 m 1
 43 64 41 126 36 184 c 1
 182 290 280 446 390 588 c 1
 15 594 l 1
 12 820 l 1
 213 804 407 805 597 816 c 1
 640 731 627 652 631 572 c 1
 564 456 428 343 327 222 c 9
 599 225 l 1
 600 161 611 87 615 23 c 1
 410 29 226 19 38 10 c 1
EndSplineSet
EndChar

StartChar: m
Encoding: 109 109 26
Width: 596
VWidth: 1024
Flags: HW
LayerCount: 2
Back
Fore
SplineSet
129.293945312 436.994140625 m 0
 132.495919757 436.994140625 194.390648011 489.733398438 202.865234375 489.733398438 c 0
 211.727306313 489.733398438 228.921725352 507.493371632 271.954101562 504.783203125 c 0
 294.104492188 503.387695312 317.946289062 495.154296875 329.17578125 485.022460938 c 0
 348.000548855 468.038000883 349.627933964 417.217773438 353.435546875 417.217773438 c 0
 361.156674865 417.217773438 366.027575804 458.360958957 418.3046875 487.984375 c 0
 435.019674429 497.456368227 479.771253209 522.816044121 522.201171875 501.599609375 c 0
 548.130675078 488.635781123 552.951789898 472.715115671 556.850585938 408.251953125 c 0
 558.981773707 373.037936085 565.137671661 359.137574442 572.62890625 262.955078125 c 0
 575.463709197 226.556604763 573.279645015 19.509590021 573.489257812 17.0595703125 c 0
 573.801757812 13.416015625 571.775390625 12.4169921875 563.864257812 12.3125 c 0
 553.629972955 12.1778383571 495.190152648 8.3035422349 490.030273438 4.0126953125 c 0
 484.697265625 -0.421875 475.244140625 6.3798828125 477.209960938 13.2353515625 c 0
 481.134765625 26.92578125 489.958984375 184.637695312 487.640625 199.668945312 c 0
 484.690681495 218.802009408 489.311258893 383.563578303 477.27734375 401.922851562 c 0
 451.65695773 441.011467392 402.219726562 315.727262314 402.219726562 286.952148438 c 0
 402.219726562 278.353515625 392.990234375 275.92578125 357.126953125 275.091796875 c 2
 322.846679688 274.293945312 l 1
 302.902348506 313.499966455 300.59191562 380.205334678 279.864257812 393.633789062 c 0
 261.859375 405.298828125 241.1015625 402.580078125 215.786132812 385.239257812 c 0
 190.89453125 368.189453125 179.166992188 346.546875 173.814453125 307.784179688 c 0
 173.166725954 303.090201719 153.448987932 194.227302013 153.267578125 193.076171875 c 0
 153.01588913 191.479277403 142.811727766 55.0704724088 151.048828125 31.4306640625 c 0
 156.424175708 16.0069492934 146.434570312 24.7826768818 146.434570312 14.818359375 c 0
 146.434570312 12.1806640625 145.185546875 9.8076171875 143.797851562 9.8076171875 c 0
 142.359375 9.8076171875 141.161132812 7.830078125 141.161132812 5.45703125 c 0
 141.161132812 -3.84633039061 94.8201477925 13.8880002924 78.4013671875 5.7900390625 c 0
 69.69921875 1.498046875 38.994140625 -4.275390625 34.3642578125 -2.490234375 c 0
 23.6765500838 1.6291616354 28.6331303108 261.899722585 22.869140625 338.108398438 c 0
 20.2529643673 372.680240395 11.3599804304 490.197871055 22.498046875 501.3359375 c 0
 26.5320162714 505.37263624 93.894013012 506.811007445 103.979492188 512.322265625 c 0
 117.704101562 519.823242188 120.783203125 516.89453125 124.954101562 492.37109375 c 0
 130.442254797 460.108175336 126.864144387 436.994140625 129.293945312 436.994140625 c 0
EndSplineSet
EndChar

StartChar: w
Encoding: 119 119 27
Width: 780
VWidth: 1024
InSpiro: 1
Flags: HW
LayerCount: 2
Back
Fore
SplineSet
382.030273438 102.545898438 m 0
 382.030273438 100.541326236 358.717773438 67.728533589 358.717773438 63.6904296875 c 0
 358.717773438 57.9169921875 318.048828125 20.0419921875 307.946289062 16.40625 c 0
 306.538524549 15.8996187069 215.623591287 -14.7693995442 158.7421875 5.3203125 c 0
 128.18359375 16.1142578125 109.376953125 39.08203125 72.765625 110.31640625 c 0
 57.7067682403 139.616962186 37.513671875 178.907391668 37.513671875 248.641601562 c 0
 37.513671875 265.251825985 14.9648445893 451.688509983 14.224609375 465.97265625 c 0
 11.4076017869 520.390553752 11.4076017869 520.390553752 10.703125 522.182617188 c 0
 8.37241741446 528.118509386 52.1199965247 529.018200384 63.935546875 522.999023438 c 0
 70.9287109375 519.436523438 90.48046875 520.487304688 96.0556640625 524.725585938 c 0
 108.188476562 533.950195312 121.834960938 525.55078125 124.176757812 507.41796875 c 0
 130.3561285 459.567399316 129.592187297 348.087635006 133.318359375 329.201171875 c 0
 151.371024109 237.681510839 151.371024109 237.681510839 152.784179688 234.653320312 c 0
 154.798828125 230.3359375 158.27734375 221.702148438 160.609375 215.225585938 c 0
 180.13786162 161.013484786 235.88480542 163.572186518 247.073242188 167.279296875 c 0
 262.09765625 172.255859375 285.174804688 188.703125 293.633789062 200.4609375 c 0
 298.02268832 206.562538235 327.586362295 258.80190669 319.473632812 268.846679688 c 0
 317.590820312 271.177734375 317.630859375 272.213867188 319.603515625 272.213867188 c 0
 323.313476562 272.213867188 330.223632812 286.202148438 330.223632812 293.713867188 c 0
 330.223632812 310.935688209 338.476329619 310.802469056 378.145507812 310.162109375 c 0
 416.745658904 309.540630849 473.467183486 314.753059964 474.376953125 314.436523438 c 0
 480.307437849 312.375778897 483.313476562 267.633439815 483.313476562 264.442382812 c 0
 483.313476562 257.329101562 493.86328125 213.153320312 498.284179688 201.755859375 c 0
 505.077843441 184.242420409 529.655017966 147.938848612 550.822265625 176.37109375 c 0
 585.242314952 222.58605325 660.981214756 507.697664758 645.469726562 523.219726562 c 0
 639.358480946 529.330972179 765.243110699 526.949976791 770.06640625 522.3125 c 0
 772.791992188 519.69140625 772.866210938 514.9296875 770.454101562 497.315429688 c 0
 760.485761919 424.48685963 760.485761919 424.48685963 756.936523438 413.12890625 c 0
 734.86790958 342.515750753 728.399256372 282.309678009 718.954101562 260.557617188 c 0
 715.247169484 252.020179043 714.099606175 238.763071471 700.514648438 206.16015625 c 0
 695.118164062 193.208007812 687.725585938 174.788085938 683.879882812 164.713867188 c 0
 665.391601562 116.274414062 663.911132812 113.83203125 627.024414062 70.943359375 c 0
 603.408203125 43.4853515625 584.970703125 26.1298828125 579.416015625 26.1298828125 c 0
 575.400437236 26.1298828125 574.111134678 19.3192107118 562.190429688 16.9345703125 c 0
 546.721449006 13.8407741761 500.152487264 43.8184242946 498.985351562 45.9462890625 c 0
 498.395219575 47.0224971122 452.167079815 98.5614723437 420.876953125 140.624023438 c 0
 415.866210938 147.358398438 410.315429688 152.837890625 408.452148438 152.88671875 c 0
 405.904296875 152.953125 382.030273438 107.466796875 382.030273438 102.545898438 c 0
  Spiro
    382.03 102.546 o
    375.997 92.4946 o
    364.751 75.0967 o
    358.718 63.6904 o
    347.819 49.6933 o
    325.577 28.9789 o
    307.946 16.4062 o
    281.326 8.85419 o
    222.327 -0.851651 o
    158.742 5.32031 o
    131.032 21.4861 o
    104.509 53.8772 o
    72.7656 110.316 o
    56.9491 143.666 o
    43.296 188.349 o
    37.5137 248.642 o
    31.6504 309.103 o
    20.5812 407.061 o
    14.2246 465.973 o
    12.2175 504.309 o
    11.3026 518.913 o
    10.7031 522.183 o
    20.8229 526.368 o
    44.3897 526.78 o
    63.9355 522.999 o
    74.1197 520.922 o
    86.8163 521.605 o
    96.0557 524.726 o
    108.207 528.369 o
    118.55 522.003 o
    124.177 507.418 o
    128.462 444.217 o
    130.667 373.103 o
    133.318 329.201 o
    146.066 264.727 o
    151.124 240.162 o
    152.784 234.653 o
    155.187 229.143 o
    157.995 222.174 o
    160.609 215.226 o
    189.184 177.9 o
    224.056 166.012 o
    247.073 167.279 o
    263.924 175.47 o
    281.157 187.752 o
    293.634 200.461 o
    304.072 218.643 o
    317.365 248.037 o
    319.474 268.847 o
    318.233 270.754 o
    318.275 271.86 o
    319.604 272.214 o
    324.001 276.112 o
    328.298 284.811 o
    330.224 293.714 o
    333.824 305.767 o
    348.112 310.011 o
    378.146 310.162 o
    420.005 311.062 o
    457.631 313.333 o
    474.377 314.437 o
    479.326 301.289 o
    482.316 278.343 o
    483.313 264.442 o
    486.207 247.586 o
    492.445 221.467 o
    498.284 201.756 o
    510.204 181.093 o
    529.324 166.418 o
    550.822 176.371 o
    594.058 283.236 o
    635.505 436.806 o
    645.47 523.22 o
    673.931 526.73 o
    734.319 525.964 o
    770.066 522.312 o
    771.913 518.586 o
    772.031 511.032 o
    770.454 497.315 o
    763.313 445.679 o
    759.801 423.806 o
    756.937 413.129 o
    739.394 347.084 o
    728.086 294.045 o
    718.954 260.558 o
    715.549 249.919 o
    710.502 232.835 o
    700.515 206.16 o
    694.664 191.912 o
    688.697 177.044 o
    683.88 164.714 o
    669.133 128.433 o
    654.031 103.526 o
    627.024 70.9434 o
    605.439 47.1414 o
    588.966 31.6357 o
    579.416 26.1299 o
    575.818 24.2791 o
    571.056 20.3743 o
    562.19 16.9346 o
    539.216 22.5961 o
    512.43 36.8054 o
    498.985 45.9463 o
    485.45 61.5954 o
    454.868 97.6644 o
    420.877 140.624 o
    415.848 146.78 o
    411.384 151.186 o
    408.452 152.887 o
    400.481 140.979 o
    388.303 117.777 o
    0 0 z
  EndSpiro
EndSplineSet
EndChar

StartChar: o
Encoding: 111 111 29
Width: 409
VWidth: 855
Flags: HW
LayerCount: 2
Back
Fore
SplineSet
260 251 m 0
 263.211914062 298.243164062 247.265625 372.681640625 205 364 c 0
 158.9609375 354.54296875 153.95703125 298.998046875 156 252 c 0
 158.434570312 196 173.008789062 154.087890625 219 155 c 0
 260.995117188 155.833007812 257.1484375 209.057617188 260 251 c 0
9 231 m 0
 11.099609375 371.919921875 93.7001953125 508.098632812 212 505 c 0
 389.285734509 500.356538802 379.503035267 285.358647839 386.894161896 193.000001633 c 0
 387.463229068 185.889005395 388.134102114 179.505010559 389 174 c 0
 406.602539062 62.083984375 296.629882812 -0.61328125 195 2 c 0
 77.5517578125 5.0205078125 7.2470703125 113.330078125 9 231 c 0
EndSplineSet
EndChar

StartChar: n
Encoding: 110 110 30
Width: 433
VWidth: 1024
Flags: HW
LayerCount: 2
Back
Fore
SplineSet
246.432617188 503.172851562 m 0
 277.164409244 516.193913834 325.461917274 510.114689824 343.916992188 500.744140625 c 0
 362.758789062 491.176757812 386.66015625 469.0078125 392.072265625 456.080078125 c 0
 397.464911343 443.194696368 400.606726899 411.524317216 404.536132812 392.728515625 c 0
 410.211914062 365.595703125 411.9375 308.350585938 409.45703125 229.434570312 c 0
 409.394489404 227.444061655 405.351624137 32.9345435248 403.71875 30.3681640625 c 0
 400.971392235 26.0537035721 369.461972419 28.4770173591 348.83203125 24.3818359375 c 0
 301.045898438 14.8974609375 291.418945312 15.275390625 293.672851562 26.5458984375 c 0
 294.423828125 30.30078125 293.298828125 45.66015625 291.173828125 60.6787109375 c 0
 287.181640625 88.890625 287.434570312 96.451171875 294.431640625 158.1640625 c 0
 298.333007812 192.5703125 298.080078125 260.2734375 293.987304688 276.948242188 c 0
 293.208984375 280.122070312 292.26171875 289.508789062 291.866210938 297.974609375 c 0
 290.5703125 325.692382812 272.374023438 341.56640625 240.970703125 342.372070312 c 0
 227.283203125 342.72265625 224.041015625 341.547851562 204.379882812 329.10546875 c 0
 174.224609375 310.021484375 166.669921875 299.33984375 149.336914062 251.279296875 c 0
 139.919921875 225.168945312 136.6015625 184.10546875 141.237304688 151.064453125 c 0
 146.6015625 112.834960938 143.986328125 24.7060546875 136.943359375 6.3388671875 c 0
 131.227419047 -8.56529535491 127.719766966 8.37850935428 102.798828125 8.68359375 c 0
 66.3528114069 9.12675395614 37.5654102712 -3.79392589623 29.75390625 4.017578125 c 0
 19.1910790401 14.5777718702 26.8095186296 334.775898031 26.91796875 338.115234375 c 0
 28.7890625 395.732421875 28.7705078125 396.004882812 23.0634765625 396.004882812 c 0
 15.25 396.004882812 14.5732421875 397.916992188 14.2685546875 420.854492188 c 0
 13.9384765625 445.703125 20.6240234375 483.44921875 26.0673828125 487.46484375 c 0
 33.2946489752 492.795513668 97.3489778951 486.804636748 110.717773438 493.490234375 c 0
 115.782226562 496.022460938 125.463867188 497.036132812 139.389648438 496.494140625 c 2
 160.416015625 495.674804688 l 1
 161.235351562 475.876953125 l 2
 161.833984375 461.404296875 163.045898438 456.080078125 165.741210938 456.080078125 c 0
 167.65234375 456.080078125 169.854492188 457.131835938 170.314453125 458.264648438 c 0
 173.154296875 465.252929688 214.483398438 489.637695312 246.432617188 503.172851562 c 0
EndSplineSet
EndChar

StartChar: l
Encoding: 108 108 31
Width: 416
VWidth: 1024
Flags: HW
LayerCount: 2
Back
Fore
SplineSet
130.263671875 495.063476562 m 0
 125.526367188 425.270507812 127.533203125 284.197265625 133.703125 253.280273438 c 0
 139.893554688 222.26171875 153.208007812 185.090820312 164.357421875 167.701171875 c 0
 197.153100769 116.548731271 276.347152517 139.653116195 296.234375 204.536132812 c 0
 302.515625 225.03125 307.0546875 225.580078125 326.607421875 208.212890625 c 0
 342.327148438 194.249023438 368.704101562 173.956054688 391.137695312 158.567382812 c 0
 406.923828125 147.737304688 406.989257812 141.666992188 391.490234375 125.880859375 c 0
 371.038735537 105.048544091 310.937157374 31.1538312315 292.264648438 22.712890625 c 0
 246.633403387 2.08986553636 246.633403387 2.08986553636 205.854492188 2.3583984375 c 0
 160.066738597 2.65969349862 151.501246964 2.71605661152 110.858398438 36.26953125 c 0
 52.5108315386 84.4407291639 43.8223768041 135.892503934 39.7578125 160.223632812 c 0
 21.7155693944 268.230368186 8.60524341154 658.174735439 10.0458984375 715.797851562 c 0
 10.5029296875 734.076171875 10.876953125 758.379882812 10.876953125 769.803710938 c 0
 10.876953125 805.331054688 8.6611328125 803.333007812 47.7119140625 803.026367188 c 0
 66.2685546875 802.880859375 89.620860596 803.757796298 99.5029296875 803.592773438 c 2
 135 803 l 5
 135 803 130.473350998 498.152602013 130.263671875 495.063476562 c 0
EndSplineSet
EndChar

StartChar: y
Encoding: 121 121 32
Width: 610
VWidth: 1024
Flags: HW
LayerCount: 2
Back
Fore
SplineSet
212.168945312 195.047851562 m 0
 212.168945312 194.168027812 245.165222467 148.635679295 287.405273438 149.436523438 c 0
 364.920297786 150.909029786 420.20521888 275.997604258 430.999023438 334.504882812 c 0
 442.901266095 399.019915214 443.311989615 401.246204997 444.595703125 450.045898438 c 0
 445.427337236 481.660031447 445.938600489 501.095434943 450.23828125 517.221679688 c 1
 510.561523438 519.102539062 l 2
 592.763909973 521.66498788 592.763909973 521.66498788 594.147460938 518.295898438 c 0
 596.193359375 513.315429688 592.293945312 483.90234375 586.880859375 463.481445312 c 0
 553.739242631 338.420697075 595.913291113 -100.247834768 576.521484375 -131.423828125 c 0
 575.760749757 -132.64827747 557.358454837 -238.321591564 531.38671875 -268.328125 c 0
 520.352712215 -281.070755682 522.389937329 -292.089490876 515.3984375 -295.870117188 c 0
 514.219205063 -296.507323858 463.932539208 -342.953116568 399.185546875 -362.659179688 c 0
 366.05859375 -372.741210938 300.034179688 -375.250976562 244.413085938 -368.541992188 c 0
 230.256835938 -366.834960938 205.719726562 -365.463867188 189.329101562 -365.463867188 c 0
 64.88917075 -365.463867188 7.1417512605 -254.471279429 6.3427734375 -252.474609375 c 0
 3.78515625 -246.079101562 -2.2099609375 -235.143554688 -7.283203125 -227.619140625 c 0
 -21.85546875 -206.006835938 -21.3330078125 -205.181640625 20.046875 -184.420898438 c 0
 76.7334625819 -155.981460502 57.209434975 -155.875976562 73.115234375 -155.875976562 c 0
 81.982421875 -155.875976562 83.3876953125 -156.747070312 84.8232421875 -163.130859375 c 0
 90.388671875 -187.880859375 114.361328125 -211.583984375 153.0546875 -230.592773438 c 0
 162.727539062 -235.345703125 173.876953125 -241.87109375 178.043945312 -245.219726562 c 0
 185.323242188 -251.069335938 187.716796875 -251.295898438 251.936523438 -252.21875 c 0
 313.481223773 -253.102273774 368.632531452 -253.894015243 401.872070312 -208.944335938 c 0
 415.576312015 -190.413507247 423.201679959 -176.42011306 432.778320312 -81.9833984375 c 0
 435.639648438 -53.76953125 436.940429688 77.2197265625 434.384765625 79.775390625 c 0
 433.257665665 80.9024905847 388.359660906 13.923471454 295.735351562 1.140625 c 0
 238.674884111 -6.73512784608 207.216759923 19.804475423 206.526367188 20.4013671875 c 0
 205.653671012 21.1554820891 151.255169941 43.0655175539 119.928710938 78.96875 c 0
 106.165039062 94.744140625 85.49609375 124.916992188 76.4892578125 142.3828125 c 0
 55.7387556033 182.614792258 32.1707788696 363.929966226 25.2666015625 392.275390625 c 0
 16.955078125 426.400390625 11.171875 494.092773438 15.716796875 504.0546875 c 0
 19.0263671875 511.310546875 40.48828125 522.005859375 43.21484375 517.758789062 c 0
 43.8086268332 516.834369016 102.211716325 508.708255222 153.0546875 515.206054688 c 6
 164.608398438 516.684570312 l 1
 154.222210204 461.283671161 161.242293725 429.336064845 156.0625 419.682617188 c 0
 152.292159786 412.655377399 162.257686677 307.367701943 168.638671875 292.586914062 c 0
 169.512487776 290.563452685 197.166703862 203.954931553 208.138671875 199.799804688 c 0
 210.288085938 198.985351562 212.168945312 196.767578125 212.168945312 195.047851562 c 0
EndSplineSet
EndChar

StartChar: a
Encoding: 97 97 33
Width: 468
VWidth: 1024
Flags: HW
LayerCount: 2
Back
Fore
SplineSet
318 152 m 17
 241 140 153.665039062 141.4921875 136 317 c 0
 131.088867188 365.793945312 173.616118386 410 222 410 c 0
 268 410 279 397 308 378 c 1
 318 152 l 17
304 28 m 25
 308 -10 l 25
 428 -4 l 1
 452 139 420 105 450 547 c 1
 416.830028262 532.985959503 377.214294206 538.630014699 339 540 c 1
 332 477 l 1
 281 488 266.013662911 503.500320224 202 502 c 0
 74 499 14 396 15 264 c 0
 15.9546383031 137.987743986 58 16 208 7 c 0
 265.930291668 3.52418249994 267 20 304 28 c 25
EndSplineSet
EndChar

StartChar: b
Encoding: 98 98 34
Width: 464
VWidth: 1024
Flags: HW
LayerCount: 2
Back
Fore
SplineSet
172 143 m 9
 174 342 l 17
 227 373 341 354 340 285 c 24
 339 199 272 151 172 143 c 9
174 456 m 1
 186.281996547 577.583187893 180.206537345 687.881184384 208 819 c 9
 62 823 l 25
 10 3 l 25
 130 -7 l 25
 134 30 l 17
 378 0 452 160 446 346 c 0
 442.902150166 442.033344867 394.956718246 515.860576491 312 513 c 0
 254 511 226 501 174 456 c 1
EndSplineSet
EndChar

StartChar: c
Encoding: 99 99 35
Width: 392
VWidth: 1024
Flags: HW
LayerCount: 2
Back
Fore
SplineSet
294.833007812 158.903320312 m 0
 299.089789045 158.903320312 334.004631561 120.564453125 339.721679688 120.564453125 c 0
 345.67424112 120.564453125 355.267635546 102.270668827 363.84375 99.61328125 c 0
 394.014011213 90.2645060685 372.656386402 57.3251464061 318.475585938 32.943359375 c 0
 312.405273438 30.2119140625 305.102539062 26.47265625 302.500976562 24.763671875 c 0
 251.667781138 -8.62742578724 149.3027638 0.498109319816 110.645507812 26.6337890625 c 0
 87.7430919074 42.1155841944 59.7011222075 61.0716642774 30.9208984375 136.5390625 c 0
 16.8935546875 173.323242188 11.6796875 203.313476562 9.4267578125 260.182617188 c 0
 7.3125 313.538085938 9.4658203125 329.857421875 24.90234375 377.436523438 c 0
 61.0415654195 488.828152467 121.634035358 503.399805198 122.307617188 503.55859375 c 4
 181.134854647 517.430238394 283.837908807 488.546009753 318.475585938 457.928710938 c 0
 335.832163546 442.588451795 353.620117188 433.621522695 353.620117188 427.756835938 c 0
 353.620117188 423.329920686 304.315500173 365.572408984 303.779296875 364.9765625 c 2
 289.40234375 349.001953125 l 1
 277.581054688 355.78125 l 2
 242.478752463 375.910907833 189.744148509 376.389424903 163.280273438 349.321289062 c 0
 113.850584878 298.770019239 147.44991245 67.1518689497 270.87109375 145.515625 c 0
 282.373046875 152.818359375 293.264648438 158.903320312 294.833007812 158.903320312 c 0
EndSplineSet
EndChar

StartChar: d
Encoding: 100 100 36
Width: 483
VWidth: 1024
Flags: HW
LayerCount: 2
Back
Fore
SplineSet
346.25 862.252929688 m 0
 357.13592642 878.944809899 395.177352572 859.152613348 432.322265625 861.629882812 c 2
 446.327148438 862.563476562 l 1
 448.194335938 845.447265625 l 2
 449.108886261 837.063741514 459.4194107 14.8761146749 435.434570312 2.2177734375 c 0
 427.654296875 -1.8876953125 331.989257812 1.54296875 327.442382812 6.08984375 c 0
 321.678634982 11.8535915801 324.253621814 60.3039021523 320.127929688 62.732421875 c 0
 311.66471442 67.7084789998 248.956520796 -5.82146918181 170.587890625 17.076171875 c 0
 73.3184171517 45.4965783704 26.3398700858 120.533006678 13.41796875 222.38671875 c 0
 8.837890625 258.48828125 12.5986328125 336.3984375 20.2080078125 363.057617188 c 0
 42.8603515625 442.418945312 64.919921875 465.186523438 134.486328125 481.00390625 c 0
 225.150503765 501.617567852 294.503602742 444.754355329 309.702148438 447.553710938 c 0
 315.198242188 448.56640625 315.6484375 452.377929688 316.081054688 501.549804688 c 0
 317.663647808 681.320370045 326.944930362 679.235409839 331.341796875 786.315429688 c 0
 332.810546875 822.10546875 338.298828125 850.060546875 346.25 862.252929688 c 0
240.922851562 362.435546875 m 0
 125.416608991 362.435546875 121.049810004 283.474063099 120.928710938 280.584960938 c 0
 119.189783381 239.11770619 115.95214541 161.905340084 187.705078125 140.50390625 c 0
 188.862959194 140.158550121 279 118 321 169 c 5
 321.93359375 169.986328125 315 222 307.834960938 343.606445312 c 5
 307.83411496 344.301553814 278.853583876 362.435546875 240.922851562 362.435546875 c 0
EndSplineSet
EndChar

StartChar: e
Encoding: 101 101 37
Width: 499
VWidth: 1024
Flags: HW
LayerCount: 2
Back
Fore
SplineSet
281.58984375 503.876953125 m 4
 518.704902245 495.263823412 467.081549952 244.433973129 438.392578125 229.22265625 c 0
 411.430673209 214.927831146 181.539228218 200.473632812 178.928710938 200.473632812 c 1
 179.34765625 184.79296875 l 2
 182.131594093 80.7051612302 334.436591127 121.657677096 336.02734375 122.219726562 c 0
 411.387785314 148.848579153 411.387785314 148.848579153 426.55859375 160.455078125 c 0
 449.875 178.29296875 452.046875 176.212890625 461.701171875 126.805664062 c 0
 469.568045172 86.5439136877 485.195044368 72.7065844916 482.162109375 56.6884765625 c 0
 477.499023438 32.064453125 440.463867188 11.2958984375 387.801757812 3.7724609375 c 0
 366.204101562 0.6875 200.529296875 1.7265625 185.141601562 5.0439453125 c 0
 9.00445500082 43.0158007949 11.9949878255 283.011866306 12.5087890625 286.271484375 c 0
 31.0541595169 403.962166095 133.585012197 509.250935229 281.58984375 503.876953125 c 4
185.880859375 305.353515625 m 0
 186.320880212 304.541712677 349.75788577 316.615383607 351.412109375 316.744140625 c 1
 334 515 140 390 185.880859375 305.353515625 c 0
EndSplineSet
EndChar

StartChar: f
Encoding: 102 102 38
Width: 470
VWidth: 1024
Flags: HW
LayerCount: 2
Back
Fore
SplineSet
194.559570312 473.735351562 m 4
 200.253468735 471.701272928 308.720167639 477.923899036 310.418945312 476.439453125 c 0
 311.361983338 475.613927626 308.25406225 352.810688191 301.024414062 351.459960938 c 0
 241.310730272 340.299873608 206.681671571 345.670543516 200.96484375 341.22265625 c 0
 198.385193527 339.216611178 164.722944447 50.1095989649 183.291015625 20.8310546875 c 0
 185.061113586 18.0396236076 183.095612079 -6.28180485474 168.370117188 6.9677734375 c 0
 149.303739309 24.1291933854 72.3174537364 -1.50199768757 18.06640625 8.875 c 1
 16.5009765625 23.53515625 l 2
 16.4911767906 23.6268825576 16.4911767906 23.6268825576 13.44140625 216.112304688 c 0
 11.5577398697 335.071831012 28.8138519072 366.434612633 28.9228515625 422.495117188 c 0
 29.5999478131 772.185891633 191.902427997 795.712586075 282.236328125 811.008789062 c 0
 311.941249628 816.038711477 425.37890625 813.459960938 456 751 c 1
 456 751 438.803710938 722.125596775 438.803710938 720.255859375 c 0
 438.803710938 719.441017407 390.962923447 649.272963531 386.333007812 657.9140625 c 0
 383.760559443 662.716002128 355.476464205 712.579799664 297.893554688 697.345703125 c 0
 286.791015625 694.409179688 280.529296875 691.790039062 280.529296875 691.790039062 c 1
 283.433387703 691.46626551 242.626265174 666.619454904 228.001953125 631.724609375 c 0
 174.879228353 505.028157807 193.038680798 474.278301782 194.559570312 473.735351562 c 4
EndSplineSet
EndChar

StartChar: g
Encoding: 103 103 39
Width: 496
VWidth: 1024
Flags: HW
LayerCount: 2
Back
Fore
SplineSet
318 361 m 5
 260 362 l 30
 194 361 150.897500153 257.997494044 152 215 c 4
 153 176 193.696471988 128.269647199 241 133 c 4
 291 138 300 154 337 168 c 29
 318 361 l 5
326 456 m 1
 342 543 l 17
 380.666992188 525.219726562 419.333007812 537.587890625 458 535 c 1
 431 331 467 250 464 50 c 0
 459.9980353 -216.797646689 509 -360 186 -408 c 0
 89.6416015625 -422.319335938 9.96214894387 -335.71387922 14 -224 c 2
 17 -141 l 25
 120 -136 l 1
 137 -217 147 -273 236 -278 c 0
 373.551024787 -285.727585662 389 -46 352 56 c 9
 304 36 310.019541561 5.8915167561 228 5 c 0
 136 4 17.3006468613 76.045537845 23 257 c 0
 27 384 88 492 212 488 c 0
 278.033798755 485.86987746 281 474 326 456 c 1
EndSplineSet
EndChar

StartChar: h
Encoding: 104 104 40
Width: 483
VWidth: 1024
Flags: HW
LayerCount: 2
Back
Fore
SplineSet
141.139648438 818.331054688 m 0
 149.762292868 822.397905362 143.01186064 641.046498028 142.645507812 639.293945312 c 0
 141.022601322 631.532476613 155.985630082 435.938042543 157.724609375 434.852539062 c 0
 188.156293683 415.803339457 132.464126028 474.879460668 294.971679688 494.045898438 c 0
 460.301354953 513.545893902 464.134940597 222.921280908 467.102539062 -2.052734375 c 1
 367.164915207 0.326810258317 357.555720064 0.555608060899 354.016601562 4.0947265625 c 0
 351.356971583 6.75541489046 386.321437845 398.321263549 270.095703125 370.818359375 c 0
 99.1273460346 330.363225083 179 21 165.201171875 7.6689453125 c 5
 155 0 145.006835938 0 33 0 c 1
 19.8505859375 0 15.8402607572 786.380848616 30.9130859375 805.706054688 c 0
 44.121935503 822.64141596 120.528930399 808.604689338 141.139648438 818.331054688 c 0
EndSplineSet
EndChar

StartChar: i
Encoding: 105 105 41
Width: 356
VWidth: 1024
Flags: HW
LayerCount: 2
Back
Fore
SplineSet
98 728 m 0
 130.015621187 728 149.282355127 701.141084682 150 671 c 0
 151 629 115 598 86 598 c 0
 56.9311162925 598 27.8530358762 626.878564951 27 661 c 0
 26 701 72 728 98 728 c 0
121.64453125 507.27734375 m 4
 128.331530875 510.063481268 140.854657858 515.281240484 136.53125 491.592773438 c 0
 135.870499725 487.973123695 123.742920466 126.713489412 178.313476562 126.026367188 c 0
 215.342564311 125.561090859 243.553305947 202.376953125 256.416015625 202.376953125 c 0
 257.330422217 202.376953125 287.509182229 177.198990465 331.583007812 150.306640625 c 0
 346.885742188 140.969726562 345.126953125 132.202148438 322.711914062 106.0703125 c 0
 234.296897927 2.99564043371 210.298895948 -1.60528329976 155.1171875 2.0390625 c 0
 80 7 20 25 12.9716796875 372.676757812 c 0
 11.2155581463 459.548530385 27.685546875 434.652244908 27.685546875 507.7421875 c 1
 90.018391037 505.206652294 114.306257507 504.218686136 121.64453125 507.27734375 c 4
EndSplineSet
EndChar

StartChar: j
Encoding: 106 106 42
Width: 398
VWidth: 1024
Flags: HW
LayerCount: 2
Back
Fore
SplineSet
323 610 m 24
 266.347766647 606.459235415 235.450951224 708.279284594 321 730 c 0
 398.162942017 749.591501336 389.683917494 614.041449545 323 610 c 24
286.712890625 -198.423828125 m 0
 286.712890625 -199.580843244 247.63607169 -236.790039062 177.557617188 -236.790039062 c 0
 141.083007812 -236.790039062 126.853515625 -230.87890625 92.1796875 -201.3203125 c 0
 68.943359375 -181.512695312 45.3076171875 -151.421875 37.271484375 -131.41796875 c 0
 31.7353515625 -117.638671875 13.826171875 -39.8291015625 13.826171875 -29.55859375 c 0
 13.826171875 -21.4521484375 20.1748046875 -16.744140625 26.5244140625 -20.1416015625 c 0
 39.2870023053 -26.9706397879 114.172632982 -10.478713943 115.009765625 -10.7802734375 c 0
 115.981309174 -11.1296973179 132.110358924 -70.0592349947 154.875 -106.020507812 c 0
 169.046879986 -128.407243239 204.088572501 -125.68481301 227.8125 -102.711914062 c 0
 242.961914062 -88.041015625 249.313476562 -73.0576171875 258.018554688 -31.44921875 c 0
 277.442382812 61.388671875 278.959960938 76.3544921875 280.076171875 186.049804688 c 0
 280.089934946 187.40073615 283.228680615 312.892641369 281.579101562 321.141601562 c 0
 277.546154411 341.303687553 274.662916993 446.170273226 268.806640625 471.094726562 c 0
 261.950195312 500.274414062 261.665039062 503.388671875 265.44140625 507.83984375 c 4
 269.866637788 513.054646953 317.277315329 503.113973289 357.771484375 509.521484375 c 0
 386.116210938 514.0078125 386.302734375 513.513671875 375.88671875 461.637695312 c 0
 373.618164062 450.342773438 373.196289062 432.728515625 374.493164062 403.548828125 c 0
 376.30078125 362.8671875 377.483398438 285.748046875 378.946289062 113.099609375 c 0
 379.604899187 35.4037388301 379.848478304 6.66884576264 357.405273438 -42.2568359375 c 0
 349.1015625 -60.359375 335.345703125 -101.638671875 335.345703125 -108.452148438 c 0
 335.345703125 -122.159734291 286.712890625 -198.331266366 286.712890625 -198.423828125 c 0
EndSplineSet
EndChar

StartChar: k
Encoding: 107 107 43
Width: 466
VWidth: 1024
Flags: HW
LayerCount: 2
Back
Fore
SplineSet
22.080078125 818.014648438 m 0
 25.7412109375 825.470703125 32.4951171875 825.92578125 34.359375 818.842773438 c 0
 37.9244956287 805.293621404 148.42405666 814.132583965 149.237304688 813.319335938 c 0
 150.790039062 811.766601562 150.603515625 805.86328125 148.73828125 797.579101562 c 0
 131.322837931 720.221419353 145.137901412 476.420798841 147.211914062 473.932617188 c 0
 148.067764537 472.904612882 238.694114517 516.313307359 277.09375 505.923828125 c 0
 281.579101562 504.709960938 291.177734375 503.065429688 298.91015625 502.185546875 c 0
 338.279012197 497.706758643 446.287716937 426.259436327 402.220703125 312.385742188 c 0
 396.770507812 298.301757812 376.45703125 270.166992188 365.461914062 261.474609375 c 0
 334.39053327 236.910090927 250.501419256 214.546341131 246.44140625 210.486328125 c 0
 244.130859375 208.17578125 255.830078125 200.41015625 285.102539062 184.828125 c 0
 298.124117042 177.89680406 359.122234617 142.927698411 423.8671875 65.2314453125 c 0
 428.111328125 60.1396484375 435.415039062 51.9765625 440.423828125 46.7294921875 c 0
 451.231445312 35.408203125 451.732421875 29.0625 442.506835938 20.3720703125 c 0
 426.566814716 5.35359302604 376.419877992 20.0308717405 361.733398438 5.998046875 c 0
 348.718440705 -6.43737527682 335.571770688 12.9370463559 334.62890625 16.90625 c 0
 331.80859375 28.7802734375 289.169921875 81.2490234375 282.340820312 81.2490234375 c 0
 281.368694133 81.2490234375 200.311301993 128.733176993 194.525390625 122.947265625 c 0
 192.577891336 120.999766336 191.12710766 81.2336449856 189.831054688 5.8603515625 c 1
 151.998046875 8.1171875 l 2
 106.157226562 10.8515625 89.353515625 10.2763671875 78.2666015625 5.591796875 c 0
 39.8384976919 -10.6467442201 35.1875 -2.99668351444 35.1875 26.84765625 c 0
 35.1875 53.9385629535 28.1318031303 76.4377098571 24.1416015625 168.235351562 c 0
 22.6162109375 203.306640625 20.583984375 236.696289062 19.603515625 242.795898438 c 0
 17.75390625 254.291992188 15.0283203125 476.41796875 15.0283203125 615.596679688 c 0
 15.0283203125 720.809570312 18.134765625 809.98046875 22.080078125 818.014648438 c 0
271.846679688 404.478515625 m 0
 265.49609375 409.165039062 241.454101562 413.439453125 238.432617188 410.41796875 c 0
 237.554993938 409.540345501 174.080118991 403.809348172 177.956054688 387.912109375 c 0
 178.899414062 384.045898438 178.0234375 382.250976562 175.1953125 382.250976562 c 0
 171.76953125 382.250976562 170.861328125 375.899414062 169.943359375 345.5234375 c 0
 168.642578125 302.444335938 169.064453125 299.833984375 177.680664062 297.666015625 c 0
 192.899009242 293.836239299 289.244140625 311.658773408 289.244140625 368.99609375 c 0
 289.244140625 378.9375 279.485351562 398.841796875 271.846679688 404.478515625 c 0
EndSplineSet
EndChar

StartChar: p
Encoding: 112 112 44
Width: 503
VWidth: 1024
Flags: HW
LayerCount: 2
Back
Fore
SplineSet
197.162109375 471.224609375 m 0
 265.667788228 518.908534384 300.702367117 516.111135316 342.807617188 508.415039062 c 0
 378.676757812 501.860351562 396.9921875 494.599609375 410.49609375 481.583984375 c 0
 423.223632812 469.31640625 440.000976562 446.401367188 440.000976562 441.286132812 c 0
 440.000976562 439.384612398 509.387129401 314.233308458 477.381835938 169.954101562 c 0
 470.002929688 136.688476562 429.94921875 72.04296875 407.024414062 56.3984375 c 0
 353.220703125 19.6826171875 347.955078125 17.4814453125 312.723632812 16.98828125 c 0
 299.127929688 16.796875 284.7734375 15.9462890625 280.615234375 15.0849609375 c 0
 266.123762455 12.0817777843 181.53109441 29.217166106 167.657226562 49.185546875 c 0
 160.017974929 60.1759577707 157.512014452 63.7812239214 155.305664062 5.072265625 c 0
 144.758022868 -275.731989433 137.741643046 -135.78601242 128.813476562 -389.775390625 c 0
 127.53120372 -426.265105425 126.856450706 -445.466592228 108.212890625 -433.157226562 c 0
 101.270507812 -428.573242188 53.8310546875 -423.416992188 25.193359375 -424.1328125 c 0
 11.88671875 -424.465820312 10.86328125 -423.956054688 8.4755859375 -415.809570312 c 0
 -2.55053365843 -378.184051691 25.882769134 23.8158251562 26.51953125 28.2138671875 c 0
 32.1474558765 67.0707295992 52.1379352407 479.819044592 52.2470703125 484.38671875 c 0
 52.453125 493.064453125 60.5869140625 500.396484375 68.0048828125 498.591796875 c 0
 76.9012777859 496.428160331 177.322599554 502.859320978 180.240234375 500.151367188 c 0
 183.075202183 497.51799709 176.557162857 461.530065172 178.0703125 459.798828125 c 0
 178.62109375 459.168945312 187.327148438 464.379882812 197.162109375 471.224609375 c 0
293.342773438 391.572265625 m 0
 258.695254092 400.731737796 270.131111953 388.17394299 247.349609375 387.229492188 c 0
 235.200195312 386.72265625 184.383789062 359.009765625 176.206054688 348.431640625 c 2
 168.379882812 338.306640625 l 1
 168.090820312 275.102539062 l 2
 167.931640625 240.390625 167.522460938 206.8125 167.181640625 200.616210938 c 0
 166.424804688 186.837890625 169.537109375 184.77734375 204.249023438 176.075195312 c 0
 254.002929688 163.602539062 280.186523438 160.900390625 305.4921875 165.626953125 c 0
 321.69140625 168.65234375 357.208007812 195.590820312 364.97265625 210.740234375 c 0
 378.541805431 237.216773165 391.42756696 287.518980029 347.45703125 351.90234375 c 0
 330.583984375 376.609375 319.666015625 384.61328125 293.342773438 391.572265625 c 0
EndSplineSet
EndChar

StartChar: q
Encoding: 113 113 45
Width: 425
VWidth: 1024
Flags: HW
LayerCount: 2
Back
Fore
SplineSet
242.455078125 16.708984375 m 0
 236.327979579 16.708984375 228.276821922 6.3916015625 218.208984375 6.3916015625 c 0
 214.248046875 6.3916015625 207.375976562 4.51171875 202.991210938 2.228515625 c 0
 187.179300121 -6.00419283953 118.947258956 -1.47270388036 72.7333984375 43.8984375 c 0
 62.416015625 54.02734375 38.5263671875 97.998046875 38.4560546875 106.986328125 c 0
 38.2910514261 128.178934508 12.4714858448 155.709563509 18.208984375 261.748046875 c 0
 22.8249623461 347.066394274 75.9383052243 440.661513331 185.966796875 449.143554688 c 0
 235.166846138 452.935301205 267.365046283 418.852398056 276.501953125 432.887695312 c 0
 283.573635394 443.746738314 285.380918458 422.16592137 290.688476562 421.409179688 c 0
 291.64453125 421.272460938 294.557617188 420.776367188 296.87890625 420.354492188 c 0
 303.404296875 419.16796875 303.87890625 420.893554688 304.40234375 447.71875 c 0
 305.005191895 478.614717443 306.690244448 478.45259212 323.188476562 476.865234375 c 0
 335.625703469 475.669456937 388.755815045 489.501181186 396.716796875 479.9609375 c 0
 403.705078125 471.5859375 408.146484375 249.108398438 403.62109375 134.069335938 c 0
 401.154296875 71.3505859375 400.362304688 -67.8935546875 401.787109375 -188.348632812 c 0
 402.5859375 -255.927734375 398.544921875 -390.045898438 395.328125 -402.693359375 c 0
 390.341765676 -422.304064216 345.73771149 -398.898727092 310.034179688 -409.868164062 c 0
 287.8515625 -416.68359375 281.6640625 -417.5859375 279.661132812 -414.299804688 c 0
 265.097535755 -390.40532637 287.782035053 -222.903587547 279.416015625 -12.1796875 c 0
 277.532226562 35.2802734375 275.887695312 40.47265625 265.668945312 31.2275390625 c 0
 263.08984375 28.8935546875 259.879882812 27.0263671875 258.447265625 27.0263671875 c 0
 254.610642586 27.0263671875 248.313123316 16.708984375 242.455078125 16.708984375 c 0
259.736328125 331.678710938 m 0
 246.364877449 338.845985215 203.067452596 334.561593221 192.544921875 324.0390625 c 0
 190.947265625 322.44140625 188.030273438 321.072265625 186.224609375 321.072265625 c 0
 167.985040258 321.072265625 110.926795154 259.776483747 135.192382812 193.39453125 c 0
 159.134085815 127.909765427 229.321282859 132.396547969 250.451171875 140.439453125 c 0
 274.2265625 149.490234375 275.837890625 151.609375 277.569335938 176.11328125 c 0
 279.675966521 205.94317031 273.565570104 232.772575532 272.301757812 285.477539062 c 0
 271.4296875 321.846679688 270.294921875 326.01953125 259.736328125 331.678710938 c 0
EndSplineSet
EndChar

StartChar: r
Encoding: 114 114 46
Width: 470
VWidth: 1024
Flags: HW
LayerCount: 2
Back
Fore
SplineSet
178.623046875 506.166992188 m 0
 218.798149079 530.926066801 297.724993171 507.938558778 298.865234375 507.556640625 c 0
 307.264648438 504.743164062 324.134765625 500.262695312 336.353515625 497.599609375 c 0
 400.778320312 483.559570312 464.921875 430.20703125 458.400390625 396.083984375 c 0
 456.8359375 387.901367188 452.708007812 384.05078125 427.4375 367.203125 c 0
 411.331054688 356.465820312 396.6640625 346.610351562 394.669921875 345.186523438 c 0
 389.204101562 341.283203125 383.162109375 347.487304688 381.33984375 358.873046875 c 0
 377.145654248 385.085607415 306.016150277 421.290536871 271.095703125 413.314453125 c 0
 264.430664062 411.791992188 257.8671875 411.155273438 256.655273438 411.912109375 c 0
 254.534179688 413.237304688 233.05078125 405.368164062 215.556640625 396.856445312 c 0
 201.63671875 390.084960938 183.859375 365.259765625 175.430664062 340.822265625 c 0
 159.290039062 294.026367188 153.633789062 205.86328125 157.313476562 58.4072265625 c 0
 158.775390625 -0.1865234375 157.759765625 -4.8583984375 145.021484375 1.8544921875 c 0
 137.591132217 5.77243461504 54.4924706163 -1.85184561627 47.8291015625 4.8115234375 c 0
 44.761986383 7.87863861705 56.1996716696 100.64938569 42.1611328125 144.770507812 c 0
 41.3714394827 147.252077887 21.2339465797 255.895297482 10.8779296875 403.303710938 c 0
 8.478515625 437.459960938 9.642578125 507.874023438 12.6591796875 511.049804688 c 0
 13.67578125 512.120117188 37.83203125 513.6171875 66.4345703125 514.381835938 c 2
 118.36328125 515.770507812 l 1
 118.36328125 498.4140625 l 2
 118.36328125 488.97265625 119.26171875 479.665039062 120.333984375 478.00390625 c 0
 122.407226562 474.790039062 146.965820312 486.655273438 178.623046875 506.166992188 c 0
EndSplineSet
EndChar

StartChar: s
Encoding: 115 115 47
Width: 323
VWidth: 1024
Flags: HW
LayerCount: 2
Back
Fore
SplineSet
78.556640625 269.0625 m 0
 66.5586020039 269.0625 36.3152137986 322.770630945 42.0390625 397.180664062 c 0
 46.0765195071 449.661286756 100.232336967 495.211262573 118.693359375 502.837890625 c 0
 122.072265625 504.233398438 136.634765625 505.421875 151.25390625 505.495117188 c 2
 177.702148438 505.627929688 l 1
 212.389648438 489.546875 l 2
 231.958621292 480.47488262 277.33334949 459.439583959 284.095703125 419.2421875 c 0
 287.722884047 397.674987348 266.439230134 394.105201276 263.822265625 394.788085938 c 0
 252.698689674 397.690076398 227.935136772 362.09375 222.755859375 362.09375 c 0
 220.769540961 362.09375 183.605424287 396.6484375 168.6640625 396.6484375 c 0
 128.151949658 396.6484375 120.602375479 349.503980248 153.779296875 332.138671875 c 0
 206.170387463 304.717603994 257.490683831 317.531177229 289.778320312 273.84765625 c 0
 310.234617286 246.168952271 329.822429719 189.624246652 277.411132812 90.9736328125 c 0
 271.474609375 79.798828125 234.318359375 40.36328125 222.888671875 33.107421875 c 0
 171.729649784 0.625943698794 108.796677975 -1.92211329046 95.037109375 5.4443359375 c 0
 91.8466796875 7.1513671875 87.1953125 8.57421875 84.802734375 8.57421875 c 0
 80.7041010912 8.57421875 32.22000107 37.8134765625 21.9404296875 37.8134765625 c 0
 -16.8058474437 37.8134765625 44.3793897735 78.2763020812 52.7197265625 112.76953125 c 0
 54.9052734375 121.807617188 63.3955078125 122.723632812 69.9580078125 114.630859375 c 0
 70.3496459561 114.147817617 170.365645878 62.7501472406 198.185546875 163.006835938 c 0
 207.99609375 198.358398438 198.465820312 233.547851562 176.106445312 244.533203125 c 0
 160.255938229 252.324634374 114.353876201 245.961909072 92.11328125 261.221679688 c 0
 85.7333984375 265.59765625 79.744140625 269.0625 78.556640625 269.0625 c 0
EndSplineSet
EndChar

StartChar: t
Encoding: 116 116 48
Width: 437
VWidth: 1024
Flags: HW
LayerCount: 2
Back
Fore
SplineSet
139.83984375 639.932617188 m 0
 144.05859375 645.0390625 148.41015625 645.595703125 152.459960938 641.545898438 c 0
 153.879758753 640.126100622 209.013215695 636.288052596 243.573242188 640.201171875 c 1
 243.170898438 607.94921875 l 2
 242.700149455 570.30788235 237.689535288 508.469983968 238.330078125 507.697265625 c 0
 239.545248276 506.234795666 314.37060116 501.467286829 345.70703125 505.81640625 c 1
 345.168945312 460.259765625 l 2
 344.501875791 403.722310446 340.618220918 402.918370667 340.576171875 402.338867188 c 0
 340.162109375 396.622070312 307.272460938 393.3046875 286.30859375 396.866210938 c 0
 277.169921875 398.418945312 264.9765625 399.651367188 258.758789062 399.651367188 c 0
 249.352539062 399.651367188 247.60546875 398.809570312 247.60546875 394.276367188 c 0
 247.60546875 392.67713233 242.478341294 328.720758027 246.400390625 234.357421875 c 0
 247.506835938 207.749023438 248.260742188 182.350585938 248.075195312 177.916015625 c 0
 247.538085938 165.014648438 255.373046875 138.250976562 261.608398438 131.686523438 c 0
 276.129666173 116.40301569 323.413990191 137.967255145 340.03125 177.916015625 c 0
 345.844726562 191.891601562 351.353515625 192.720703125 361.455078125 181.140625 c 0
 372.100789219 168.938627111 407.822085745 150.229137249 415.721679688 149.291015625 c 0
 444.137061603 145.922469972 391.927406004 85.433544835 391.46875 84.9208984375 c 0
 385.546875 78.302734375 375.765625 66.3759765625 369.8671875 58.5810546875 c 0
 346.214556169 27.3261216006 338.778135957 17.4995271348 285.233398438 8.3212890625 c 0
 280.03125 7.4296875 265.61328125 4.263671875 252.98046875 1.2392578125 c 0
 171.396166671 -18.2886893631 160.687588661 27.5181768646 157.483398438 83.845703125 c 0
 155.074880882 126.189176109 149.296113912 151.401630879 145.337890625 234.357421875 c 0
 143.806328284 266.455652888 134.721679688 382.56168974 134.721679688 384.0625 c 0
 134.721679688 402.0703125 134.721679688 402.0703125 102.46875 409.92578125 c 0
 76.12890625 416.33984375 50.7529296875 417.515625 30.169921875 413.275390625 c 0
 9.1494140625 408.944335938 8.3994140625 410.133789062 8.3994140625 447.76171875 c 0
 8.3994140625 470.337890625 7.2861328125 481.088867188 4.3642578125 486.733398438 c 0
 -3.1103515625 501.173828125 -0.470703125 501.778320312 69.41015625 501.640625 c 0
 104.081054688 501.572265625 133.177734375 502.122070312 133.915039062 502.859375 c 0
 136.8535537 505.797889637 133.131360063 631.814154775 139.83984375 639.932617188 c 0
EndSplineSet
EndChar

StartChar: u
Encoding: 117 117 49
Width: 450
VWidth: 1024
Flags: HW
LayerCount: 2
Back
Fore
SplineSet
409.7265625 509.305664062 m 0
 435.0625 519.440429688 437.002929688 516.674804688 431.215820312 478.669921875 c 0
 427.713867188 455.665787558 427.713867188 455.665787558 427.713867188 279.65625 c 0
 427.713867188 255.926874924 423.895256909 291.650312076 422.829101562 124.73828125 c 0
 421.921875 -17.125 421.724609375 -18.70703125 406.53515625 -5.767578125 c 0
 392.207171669 6.43629309794 346.410625759 7.19391555644 344.162109375 6.3291015625 c 0
 323.322450779 -1.68763849705 327.833159121 45.248046875 322.258789062 45.248046875 c 0
 320.900390625 45.248046875 315.861328125 38.8662109375 311.03515625 31.033203125 c 0
 283.089966071 -14.3303026247 203.588084455 -0.572458831246 164.004882812 21.037109375 c 0
 115.266601562 47.6435546875 99.810546875 63.1337890625 80.21484375 105.010742188 c 0
 59.86328125 148.505859375 50.8896484375 177.828125 42.66015625 227.7265625 c 0
 38.5458984375 252.67578125 33.375 280.793945312 31.1376953125 290.389648438 c 0
 22.142578125 328.974609375 10.091796875 467.1015625 14.5859375 480.12109375 c 0
 16.3876953125 485.342773438 17.091796875 491.245117188 16.1943359375 493.611328125 c 0
 14.974609375 496.828125 16.919921875 497.888671875 24.462890625 498.118164062 c 0
 86.5227934639 500.006701501 129.93108811 513.203305847 134.4140625 506.23046875 c 0
 135.805664062 504.064453125 136.272460938 500.138671875 135.412109375 497.817382812 c 0
 131.799804688 488.0703125 130.392578125 352.763671875 133.685546875 331.875 c 0
 135.515625 320.271484375 137.546875 302.172851562 138.178710938 291.840820312 c 0
 140.48828125 254.125976562 149.568359375 214.118164062 159.182617188 199.295898438 c 0
 179.881835938 167.383789062 206.784179688 148.453125 236.2421875 145.0703125 c 0
 251.6171875 143.3046875 251.6171875 143.3046875 266.413085938 157.665039062 c 0
 291.735828911 182.245650163 305.287109375 239.329200714 305.287109375 248.904296875 c 0
 305.287109375 256.447265625 306.454101562 263.256835938 307.8984375 264.145507812 c 0
 320.870117188 272.124023438 332.868164062 455.461914062 322.791992188 491.725585938 c 0
 316.126728508 515.710228076 332.012541857 511.977824934 339.23046875 509.223632812 c 0
 354.31640625 503.466796875 395.249023438 503.514648438 409.7265625 509.305664062 c 0
EndSplineSet
EndChar

StartChar: v
Encoding: 118 118 50
Width: 556
VWidth: 1024
Flags: HW
LayerCount: 2
Back
Fore
SplineSet
530.229492188 464.514648438 m 0
 530.229492188 459.651492086 508.374023438 414.81459353 508.374023438 405.381835938 c 0
 508.374023438 391.296547281 459.391803472 283.261777114 458.590820312 272.061523438 c 0
 457.629211068 258.582495813 454.897397414 263.71140171 448.876953125 247.77734375 c 0
 417.353225289 164.33776478 396.666015625 108.656221337 396.666015625 106.200195312 c 0
 396.666015625 105.864657034 390.322340938 92.3253824023 384.646484375 74.873046875 c 0
 358.666015625 -5.021484375 363.548828125 0.220703125 319.685546875 5.126953125 c 0
 241.800271597 13.8372585353 202.124119682 0.078125 200.935546875 0.078125 c 0
 195.834960938 0.078125 181.604492188 13.8564453125 185.393554688 15.1259765625 c 0
 187.592773438 15.86328125 179.25 37.9619140625 170.720703125 53.9892578125 c 0
 169.967699006 55.4030029886 113.60275582 182.410360224 111.5859375 202.8515625 c 0
 108.742730461 231.698392484 93.11328125 251.659057037 93.11328125 263.319335938 c 0
 93.11328125 280.748397289 84.2626903036 273.902890787 67.5576171875 349.528320312 c 0
 51.9971831583 419.984888242 41.2117042579 447.504461408 24.5517578125 473.377929688 c 0
 19 482 12 507 12 507 c 1
 12 507 65.9152055752 508.337167873 90.6845703125 504.984375 c 0
 145.410994751 497.576580422 145.410994751 497.576580422 147.266601562 495.719726562 c 0
 148.723632812 494.262695312 152.366210938 493.048828125 155.280273438 493.048828125 c 0
 163.051757812 493.048828125 168.39453125 490.575195312 168.39453125 486.977539062 c 0
 168.39453125 479.250542762 260.674804688 256.596820184 260.674804688 254.091796875 c 0
 260.674804688 244.623351762 260.674804688 244.623351762 287.470703125 172.982421875 c 0
 290.196289062 165.696289062 297.100585938 161.866210938 297.100585938 167.639648438 c 0
 297.100585938 171.09765625 306.96875 192.409179688 310.59375 196.780273438 c 0
 312.392206813 198.949840386 394.336734063 331.01892667 400.359375 463.907226562 c 0
 401.733398438 494.262695312 404.518554688 500.333984375 417.065429688 500.333984375 c 0
 505.624388725 500.333984375 505.624388725 500.333984375 534.358398438 494.229492188 c 0
 548.057336624 491.316978808 530.229492188 472.3773301 530.229492188 464.514648438 c 0
EndSplineSet
EndChar

StartChar: x
Encoding: 120 120 51
Width: 527
VWidth: 1024
Flags: HW
LayerCount: 2
Back
Fore
SplineSet
154.887695312 452.91796875 m 0
 154.887695312 447.069933967 171.963867188 425.077271614 171.963867188 420.350585938 c 0
 171.963867188 410.509651343 246.686867409 305.299060473 250.396484375 307.642578125 c 0
 252.074804857 308.702228692 327.425747157 456.868502504 344.206054688 482.559570312 c 0
 348.827148438 489.633789062 352.4921875 496.485351562 352.4921875 498.05078125 c 0
 352.4921875 498.339378503 359.802943326 518.129550061 376.27734375 514.395507812 c 0
 389.358383151 511.431081344 497.120763736 514.475129081 505.452148438 512.36328125 c 0
 522.57700546 508.020251034 494.068105863 488.872557848 479.438476562 458.651367188 c 0
 472.39310117 444.099094772 459.474689074 429.311043092 446.68359375 404.004882812 c 0
 419.710686538 350.64646285 426.137347149 374.669444065 406.284179688 339.112304688 c 0
 387.055434599 304.670970992 359.810546875 268.389612096 359.810546875 258.36328125 c 0
 359.810546875 255.435546875 358.590820312 252.58984375 357.126953125 252.1015625 c 0
 347.768802743 248.982179039 369.549836929 227.964677035 375.66796875 213.475585938 c 0
 385.32227948 190.608378952 432.997070312 131.935524641 432.997070312 124.674804688 c 0
 432.997070312 122.039891274 450.930889465 100.259313357 453.733398438 91.4970703125 c 0
 459.324457883 74.0266748718 503.745117188 36.8065148164 503.745117188 29.5322265625 c 0
 503.745117188 22.2176376831 517.126708528 24.9214766994 507.23828125 9.771484375 c 0
 504.225585938 5.15625 501.061523438 3.6728515625 494.23046875 3.6728515625 c 0
 476.370432435 3.6728515625 465.963205757 -5.98547244614 451.049804688 -1.083984375 c 0
 431.241332674 5.42398562796 366.003318541 -7.26925650843 358.95703125 11.9677734375 c 0
 356.586431815 18.4265737254 339.268103951 23.6961987597 336.756835938 34.8994140625 c 0
 334.437577069 45.2435620848 320.377553431 52.9556190679 312.239257812 71.0048828125 c 0
 312.153190945 71.1957030155 314.700702652 65.5475748412 287.362304688 113.453125 c 0
 254.650871043 170.783203125 254.650871043 170.783203125 253.689453125 170.783203125 c 0
 243.948306862 170.783203125 186.677342691 3.74863175344 181.234375 -1.6943359375 c 0
 171.511610193 -11.4171007446 163.550211574 2.85459807225 130.369140625 -0.23046875 c 0
 106.841807404 -2.41807003348 78.7280836992 -0.304838191594 67.55078125 -3.5244140625 c 0
 44.0290355734 -10.2927349221 54.140225387 14.2986415816 54.376953125 14.4443359375 c 0
 58.9604207514 17.2643590388 111.453499237 118.896357828 145.155273438 161.756835938 c 0
 150.690429688 168.794921875 160.452148438 182.858398438 167.084960938 193.348632812 c 2
 179.0390625 212.255859375 l 1
 168.670898438 233.479492188 l 2
 145.892242885 280.106132463 86.7350113865 352.869772286 85.9697265625 354.116210938 c 0
 85.196723211 355.374731698 10.5852443396 472.57102937 4.8544921875 477.543945312 c 0
 -0.7099609375 482.37109375 -1.173828125 483.900390625 1.072265625 490 c 0
 3.515625 496.62890625 4.1220703125 496.879882812 14.1240234375 495.380859375 c 0
 31.689453125 492.749023438 107.09375 493.408203125 117.805664062 496.287109375 c 0
 131.223632812 499.893554688 140.25 497.51171875 140.25 490.365234375 c 0
 140.25 474.705471721 154.887695312 455.375802398 154.887695312 452.91796875 c 0
EndSplineSet
EndChar

StartChar: z
Encoding: 122 122 52
Width: 464
VWidth: 1024
Flags: HWO
LayerCount: 2
Back
Fore
SplineSet
435.900390625 502.014648438 m 1
 429.927734375 374.952878736 429.927734375 374.952878736 429.927734375 343.12890625 c 4
 429.927734375 342.47040152 412.874006156 333.494751754 383.875 296.060546875 c 0
 371.2890625 279.813476562 359.444335938 263.248046875 359.444335938 261.89453125 c 0
 359.444335938 260.146557141 292.681127897 192.404789925 286.919921875 181.13671875 c 0
 272.862465715 153.640325269 245.17793104 126.597546737 246.594726562 122.361328125 c 0
 249.458007812 113.802734375 389.400858935 126.623639895 410.334960938 132.547851562 c 0
 419 135 435.560369916 145.504226474 436.258789062 85.2080078125 c 0
 437.006340778 20.602431483 437.006340778 20.602431483 416.189453125 21.056640625 c 0
 414.175430501 21.1006144451 251.724664387 16.6791019365 214.893554688 13.171875 c 0
 180.413402837 9.88747303898 117.808330343 7.05796733729 85.8740234375 4.240234375 c 0
 55.7685546875 1.583984375 52.146484375 3.44140625 55.4052734375 19.8623046875 c 0
 56.65625 26.169921875 57.94921875 46.3828125 58.27734375 64.7802734375 c 2
 58.875 98.2294921875 l 1
 84.91796875 124.51171875 l 2
 86.3574525663 125.964342759 182.211136195 225.732506064 220.98046875 277.185546875 c 0
 240.551827884 303.1588909 248.668325819 302.485387136 259.21484375 315.533203125 c 0
 260.53262197 317.163516357 260.53262197 317.163516357 298.637695312 355.552734375 c 0
 313.577148438 370.60546875 314.198242188 371.643554688 309.030273438 372.934570312 c 0
 285.280262099 378.873349206 25.5335639405 364.285676714 23.513671875 366.3046875 c 0
 22.6326328146 367.18572656 21.3707412549 411.99738775 5.482421875 489.590820312 c 0
 4.4052734375 494.846679688 4.9794921875 496.0859375 8.5810546875 496.280273438 c 0
 17.5875239059 496.767792822 268.940977772 497.65067369 293.739257812 500.461914062 c 0
 303.594726562 501.579101562 339.61328125 502.384765625 373.779296875 502.25390625 c 2
 435.900390625 502.014648438 l 1
EndSplineSet
EndChar
